<?xml version="1.0" encoding="utf-8"?>
<!-- Generator: Adobe Illustrator 24.2.1, SVG Export Plug-In . SVG Version: 6.00 Build 0)  -->
<svg version="1.1" id="Layer_1" xmlns="http://www.w3.org/2000/svg" xmlns:xlink="http://www.w3.org/1999/xlink" x="0px" y="0px"
	 viewBox="0 0 450 120" style="enable-background:new 0 0 450 120;" xml:space="preserve">
<style type="text/css">
	.st0{fill:#FFFFFF;}
	.st1{fill:#ED145B;}
</style>
<g>
	<g>
		<path class="st0" d="M59.69,100.68c-3.06,0-5.7-0.7-7.86-2.11c-2.17-1.4-3.79-3.43-4.8-6.01c-1-2.53-1.35-5.73-1.02-9.49
			c0.17-2.11,0.66-4.36,1.44-6.7c0.79-2.35,2.01-4.6,3.61-6.69c1.61-2.08,3.67-3.89,6.12-5.36c2.49-1.48,5.33-2.3,8.46-2.42
			c0.23-0.01,0.45-0.01,0.67-0.01c3.36,0,6.11,0.89,8.19,2.65c2.2,1.85,3.66,4.33,4.35,7.35c0.91,4,0.52,7.4,0.14,9.61
			c-0.44,2.53-1.55,5.74-3.07,8.81c-0.46,0.96-1.33,2.17-2.04,3.16l-0.45,0.63c-2,2.53-4.6,4.42-7.53,5.49
			C63.02,100.68,60.52,100.68,59.69,100.68z M66.04,68.4c-0.14,0-0.29,0-0.44,0.01c-1.36,0.06-2.83,0.68-4.38,1.85
			c-1.58,1.2-3.01,3.08-4.25,5.63c-1.25,2.55-1.99,5.14-2.21,7.69c-0.23,3.56,0.16,6.31,1.17,8.15c0.96,1.73,2.36,2.55,4.32,2.55
			c1.63,0,2.78-0.62,3.54-1.04c1.16-0.63,2.17-1.51,3-2.59c0.59-0.61,1.04-1.24,1.39-1.92c0.56-1.12,0.85-1.85,1-2.31
			c0.61-1.76,1.23-4.53,1.65-7.42c0.28-1.93,0.28-3.65,0.01-5.57c-0.21-1.5-0.77-2.76-1.68-3.76C68.39,68.82,67.36,68.4,66.04,68.4z
			"/>
		<path class="st0" d="M20.76,52.99c0.68,0.01,2.39,0.18,3.27,1.28c0.97,1.21,0.76,3.08,0.68,3.73c-0.08,0.64-0.26,1.35-0.52,2.32
			c-0.21,0.81-0.99,5.22-1.17,6.28c-0.25,1.51,0.09,2.75,1.13,4c1,1.2,2.65,1.81,4.13,1.85c0.25,0.01,0.44,0.01,0.62,0.01
			c2.04,0,3.98-0.13,5.81-0.74c2.06-0.69,3.96-1.76,5.26-3.76c1.3-2,2.42-5.25,2.51-8.49c0.08-2.77-1.36-5.93-2.64-8.05
			s-3.59-3.9-6.02-5.27c-2.44-1.37-5.29-2.15-8.5-2.31c-0.41-0.02-0.82-0.03-1.22-0.03c-4.05,0-7.74,1.01-10.99,3.03
			c-3.52,2.17-5.44,4.96-6.12,8.15c-0.68,3.19,0.66,6.79,3.16,9.78c0.46,0.69,0.49,1.44,0.14,2.28c-0.32,0.77-1,1.4-2.01,1.86
			c-0.52,0.24-1.02,0.36-1.48,0.36c-0.52,0-1-0.14-1.43-0.43c-1.92-1.47-3.1-3.39-4-5.1c-1-1.89-1.27-4.1-1.45-6.19
			c-0.25-2.92,0.21-5.39,1.51-7.99c1.25-2.51,2.16-4.28,4.95-6.66c2.28-1.94,4.68-3.53,7.88-4.48c3-0.9,6.19-1.35,9.48-1.35h0.6
			c2.37,0.06,4.98,0.44,7.8,1.12c2.84,0.69,5.43,1.78,7.71,3.23c2.28,1.45,3.97,3.2,5.44,4.98c1.48,1.8,2.88,4,3.6,6.33
			c0.72,2.3,1.33,5.19,1.21,7.76c-0.18,3.82-1.12,6.96-2.8,9.75c-1.68,2.8-4.3,5.17-7.03,6.65c-2.72,1.48-5.88,2.27-9.39,2.32h-0.46
			c-1.58,0-3.18-0.14-4.78-0.4c-0.29-0.05-0.59-0.07-0.87-0.07c-1.61,0-3.13,0.86-3.94,2.12c-0.46,0.72-0.84,1.5-0.84,1.84
			l-2.3,14.06c-0.01,0.3-0.17,2.47-1.93,3.45c-0.9,0.49-1.78,0.45-1.96,0.44c-1.29-0.08-2.43-0.85-3.05-1.7
			C9.73,97.57,10,95.85,10.1,95.2l6.44-37.29C16.86,55.42,18.53,52.97,20.76,52.99z"/>
		<path class="st0" d="M314.81,120.11c-0.96,0-1.78-0.36-2.39-1.02c-0.84-0.93-1.17-2.4-0.97-4.15c1.31-9.16,1.71-10.62,3.1-19.62
			c0.02-0.17-0.01-0.32-0.13-0.45c-0.12-0.14-0.3-0.22-0.46-0.22c-0.13,0-0.25,0.06-0.35,0.16c-3.04,3.26-6.33,4.91-9.78,4.91
			c-1.07,0-2.22-0.36-3.42-1.08c-1.24-0.74-2.23-2.07-2.95-3.97c-0.21-0.54-0.37-1.13-0.48-1.73c-0.07-0.35-0.36-0.51-0.59-0.51
			c-0.12,0-0.28,0.03-0.4,0.23c-1.48,2.36-2.95,4.1-4.35,5.16c-2.11,1.6-4.41,2.44-6.81,2.51h-0.35c-2.11,0-3.99-0.55-5.59-1.63
			c-1.68-1.14-3.04-2.9-4.02-5.24c-0.32-0.75-0.56-1.58-0.75-2.45c-0.07-0.32-0.33-0.49-0.56-0.49c-0.1,0-0.21,0.03-0.3,0.1
			c-0.66,0.52-1.36,0.97-2.09,1.33c-1.2,0.6-2.32,1.12-3.43,1.61c-2.38,1.08-4.63,2.09-7.3,3.88l-0.18,0.13
			c-2.21,1.47-4.11,2.75-9.14,2.75h-0.35c-2.7-0.07-4.84-1.07-6.37-2.98c-0.84-1.05-1.44-2.29-1.8-3.68
			c-0.08-0.33-0.36-0.47-0.58-0.47c-0.15,0-0.26,0.06-0.37,0.18c-0.64,0.82-1.35,1.61-2.11,2.34c-1.6,1.55-3.41,2.72-5.37,3.48
			c-1.83,0.7-3.65,1.06-5.42,1.06c-0.14,0-0.29,0-0.43-0.01c-2.83-0.13-5.03-1.23-6.54-3.27c-1.23-1.67-1.89-3.89-1.96-6.6
			c-0.92,0.86-1.88,1.52-3.05,2.34l-0.6,0.41c-1.68,1.17-3.53,1.98-5.33,2.75c-0.85,0.37-1.73,0.75-2.59,1.16
			c-0.15,0.08-0.32,0.18-0.55,0.33c-0.49,0.31-1.25,0.79-2.64,1.5c-2.05,1.05-4.26,1.58-6.57,1.58h-0.39c-1.37,0-2.8-0.32-4.22-0.94
			c-1.45-0.63-2.69-1.54-3.72-2.72c-1.02-1.17-1.76-2.61-2.19-4.28c-0.43-1.63-0.51-3.43-0.24-5.33c0.2-0.71,0.62-1.24,1.27-1.68
			c0.51-0.33,1.1-0.51,1.8-0.51c0.22,0,0.45,0.01,0.68,0.05c0.18,0.02,0.36,0.06,0.52,0.1c0.96,0.26,1.61,1.22,1.53,2.23
			c-0.16,1.92,0.17,3.48,1,4.63c0.89,1.22,2.04,1.82,3.54,1.82c1.17,0,1.97-0.51,2.54-0.89c0.21-0.14,0.35-0.22,0.47-0.29
			c0.44-0.26,0.51-0.3,1.37-1.54c1.08-1.56,0.92-4.19,0.79-5.25l-0.08-0.68c-0.1-0.91-0.14-1.19-0.33-2.15
			c-0.4-1.88-0.9-2.99-1.89-5.2c-0.29-0.63-0.6-1.36-0.97-2.21c-1.68-3.89-2.69-6.57-3.08-8.22c-0.08-0.36-0.16-0.69-0.23-1
			c-0.07-0.31-0.33-0.47-0.58-0.47c-0.15,0-0.28,0.06-0.36,0.18c-0.93,1.25-1.89,2.74-2.82,4.43c-1.2,2.16-2.65,5.43-4.29,9.72
			c-0.01,0.08-0.03,0.17-0.07,0.28c-0.35,0.96-0.71,1.89-1.08,2.78l-0.16,0.44c-0.02,0.05-0.06,0.13-0.1,0.18
			c-1.97,4.66-4.17,8.33-6.56,10.89c-3.04,3.26-6.33,4.9-9.78,4.9c-1.07,0-2.22-0.36-3.42-1.08c-1.24-0.74-2.23-2.07-2.95-3.97
			c-0.21-0.54-0.37-1.13-0.48-1.73c-0.07-0.35-0.36-0.51-0.59-0.51c-0.12,0-0.28,0.03-0.4,0.23c-1.48,2.36-2.95,4.1-4.35,5.16
			c-2.11,1.6-4.4,2.44-6.81,2.51h-0.35c-2.11,0-3.99-0.55-5.59-1.63c-1.68-1.14-3.04-2.9-4.02-5.24c-0.25-0.61-0.47-1.25-0.63-1.94
			c-1.86,2.7-3.91,4.83-6.06,6.35c-2.39,1.68-4.89,2.53-7.42,2.53c-2.65,0-4.89-0.85-6.69-2.53c-2.97-2.8-4.64-7.74-5.1-15.11
			c-0.05-0.79,0.38-1.5,1.1-1.8c2.45-1.01,4.56-2.17,6.28-3.44c1.89-1.38,3.29-2.76,4.18-4.1c0.85-1.28,1.27-2.42,1.23-3.38
			c-0.03-0.84-0.36-1.42-1.04-1.81c-0.49-0.3-1.02-0.45-1.66-0.45c-0.52,0-1.1,0.1-1.73,0.3c-1.51,0.47-3.07,1.39-4.66,2.74
			c-1.6,1.36-3.04,3.05-4.25,5.03c-1.21,1.97-2.01,4.05-2.38,6.18c-1.04,6.17-1.82,11.39-2.32,15.52c-0.13,0.67-0.59,1.19-1.42,1.63
			c-0.74,0.4-1.74,0.61-2.96,0.61c-1.25,0-2.23-0.21-2.98-0.63c-0.45-0.25-0.78-0.59-0.99-0.98c-0.26,0.18-0.54,0.35-0.81,0.51
			c-2,1.17-4.3,1.76-6.85,1.76c-0.72,0-1.47-0.05-2.23-0.14c-4.81-0.56-8.07-3.48-9.68-8.64c-1.54-4.95-1.47-12.58,0.17-22.66
			c1.02-6.46,2.57-12.47,4.59-17.88c2.05-5.48,4.5-9.36,7.26-11.53c1.39-1.12,2.89-1.83,4.46-2.11c0.46-0.08,0.94-0.13,1.4-0.13
			c1.15,0,2.31,0.25,3.46,0.75c1.66,0.71,2.99,2.03,3.96,3.89c0.93,1.8,1.45,3.79,1.54,5.94c0.09,2.12-0.21,4.41-0.9,6.81
			c-0.96,3.38-2.46,6.72-4.5,9.92s-4.38,5.94-6.98,8.14c-2.4,2.04-4.73,3.72-6.9,4.98c-0.09,0.05-0.2,0.15-0.22,0.32
			c-0.23,2.04-0.35,4.28-0.35,6.67c0,2.51,0.43,4.68,1.27,6.44c0.77,1.61,1.93,2.47,3.53,2.62c0.29,0.03,0.55,0.06,0.82,0.06
			c0.99,0,2.05-0.24,3.13-0.7c1.4-0.6,2.83-1.73,4.26-3.35c0.16-0.18,0.31-0.38,0.47-0.56l0.06-0.07c0.59-3.58,1.23-7.36,1.92-11.25
			c1.23-6.96,2.84-15.13,4.78-24.28c1.94-9.21,3-14.51,3.18-15.27c0.01-0.03,0.02-0.08,0.03-0.12c0.32-0.78,1.37-1,2.13-1.09
			c0.21-0.02,0.41-0.03,0.63-0.03c0.9,0,1.91,0.22,3.03,0.66c2.04,0.79,2.39,1.89,2.35,2.67c-0.02,0.23-0.09,0.99-0.41,2.4
			c-0.23,1.02-1.17,5.27-2.84,12.74c-0.89,3.99-1.61,7.38-2.15,10.03c-0.03,0.17,0,0.31,0.1,0.44c0.12,0.14,0.29,0.22,0.45,0.22
			c0.13,0,0.24-0.05,0.33-0.15c0.18-0.2,0.37-0.38,0.56-0.58c1.56-1.54,3.48-2.81,5.68-3.74c1.74-0.74,3.43-1.1,5.03-1.1
			c0.47,0,0.94,0.03,1.4,0.09c2.05,0.29,3.64,0.93,4.71,1.92c1.06,0.98,1.85,2.29,2.38,3.9c0.53,1.63,0.43,3.68-0.29,6.09
			c-0.71,2.39-2.31,4.68-4.76,6.81c-2.22,1.92-4.84,3.46-7.81,4.57c-0.21,0.08-0.35,0.28-0.32,0.49c0.21,2.65,0.77,4.86,1.67,6.56
			c0.91,1.73,2.16,2.6,3.81,2.65c2.46,0,4.94-1.33,7.34-3.96c1.97-2.15,3.72-5.12,5.2-8.83c0.98-4.12,2.92-7.99,5.78-11.53
			c3.79-4.71,8.25-7.55,13.29-8.45c1.23-0.21,2.53-0.33,3.88-0.31c3.69,0.06,6,1.27,7.19,2.36c0.03,0.02,0.06,0.06,0.09,0.09
			c0.54,0.68,0.47,1.6-0.2,2.72c-0.58,0.97-1.21,1.6-1.91,1.96c-0.43,0.21-0.81,0.31-1.16,0.31c-0.36,0-0.64-0.2-0.97-0.31
			c-1.98-0.7-3.8-0.51-4.43-0.39c-1.04,0.16-2.24,0.64-3.62,1.42c-1.38,0.78-2.77,2.01-4.14,3.67c-1.38,1.67-2.54,3.56-3.44,5.6
			c-1.29,2.84-1.96,5.81-2,8.83c-0.05,2.9,0.49,4.91,1.6,5.97c0.44,0.43,0.96,0.63,1.59,0.63c0.3,0,0.62-0.05,0.97-0.14
			c1.21-0.31,2.62-1.42,4.2-3.27c1.62-1.91,3.23-4.6,4.76-8.02c1.54-3.42,2.62-6.59,3.24-10.72c0.01-0.06,0.02-0.1,0.05-0.16
			c0.25-0.61,0.9-1.33,2.54-1.33c0.15,0,0.3,0,0.45,0.01c1.39,0.09,2.54,0.44,3.39,1.01c0.35,0.23,0.62,0.46,0.85,0.68
			c0.49,0.49,0.71,1.21,0.59,1.88c-1.35,7.15-2.09,10.72-2.24,11.91c-0.15,1.2-0.24,2.04-0.25,2.49c-0.16,1.97-0.08,3.43,0.23,4.34
			c0.24,0.71,0.61,1,1.28,1c0.94,0,2.05-0.55,3.31-1.65c1.33-1.15,2.76-2.93,4.23-5.3c0.97-1.55,1.85-3.33,2.64-5.26
			c3.64-10.55,7.58-17.87,11.74-21.71c1.22-1.13,2.5-1.85,3.8-2.17c0.55-0.14,1.08-0.21,1.58-0.21c0.72,0,1.4,0.15,2,0.44
			c1.07,0.52,1.77,1.36,2.01,2.44c0.21,0.92,0.02,1.88-0.56,2.83c-0.05,0.08-0.1,0.21-0.09,0.33c0.15,0.86,0.37,1.84,0.66,2.91
			c0.33,1.25,0.71,2.44,1.13,3.53c0.41,1.1,1.63,3.96,3.62,8.48c1.54,3.51,2.22,7.42,1.92,11.01c-0.01,0.18,0.07,0.32,0.14,0.39
			c0.12,0.13,0.28,0.2,0.43,0.2c0.07,0,0.15-0.01,0.22-0.05c3.62-1.61,7.26-5.97,9.27-11.1c0.45-2.29,1.04-4.83,1.74-7.65
			c0.99-3.92,1.6-6.4,1.81-7.36c0.03-0.15,0.08-0.35,0.21-0.54c0.38-0.6,1.06-1.02,2.07-1.31c0.43-0.12,0.89-0.18,1.38-0.18
			c0.72,0,1.54,0.14,2.39,0.41c2.27,0.71,2.43,1.89,2.32,2.53c-2.35,9.18-3.85,16.64-4.46,22.2c-0.45,3.59-0.12,5.11,0.23,5.75
			c0.46,0.85,1.14,1.29,2.13,1.38c0.05,0,0.2,0,0.2,0c1.68,0,3.61-1.12,5.76-3.33c2.3-2.37,4.06-5.71,5.24-9.92l4.03-17.11
			c0.01-0.03,0.02-0.07,0.03-0.1c0.2-0.49,0.61-0.91,1.24-1.28c0.61-0.36,1.4-0.53,2.42-0.53c0.97,0,1.92,0.18,2.85,0.53
			c1.56,0.59,1.8,1.62,1.78,2.19c0,0.07-0.01,0.13-0.02,0.18c-0.09,0.32-0.52,1.91-2,7.63c-1.2,4.57-2.04,9.15-2.52,13.61
			c-0.36,3-0.35,5.18,0.03,6.48c0.4,1.36,1.14,1.53,1.81,1.53c1.13,0,2.29-0.38,3.49-1.13c1.09-0.69,2.05-1.58,2.83-2.65
			c0.29-0.44,0.48-0.74,0.68-1.02c0.38-0.55,0.77-1.13,2-3.15c1.8-2.96,3.22-7.18,3.79-9.86c0.77-3.66,1.35-9.79,1.43-12.58
			c0.03-1.3,1.74-1.68,2.29-1.81c0.51-0.12,1.02-0.17,1.53-0.17c0.79,0,1.59,0.14,2.37,0.41c1.83,0.66,2.29,1.73,2.36,2.52
			c0.15,2.45-0.05,5.11-0.56,7.92c-1.09,5.95-1.37,7-2.67,10.23c-0.3,0.75-0.67,1.55-1.08,2.39c-0.09,0.18-0.08,0.36,0.02,0.52
			c0.12,0.17,0.31,0.29,0.49,0.29c0.12,0,0.23-0.05,0.33-0.14c0.53-0.47,1-0.99,1.42-1.54c0.91-1.22,1.51-2.66,2.04-3.94
			c0.24-0.58,0.46-1.09,0.68-1.54c1.08-3.1,2.76-6.06,4.98-8.84c3.79-4.71,8.25-7.55,13.29-8.45c1.23-0.21,2.53-0.4,3.88-0.31
			c3.76,0.25,6.17,0.66,7.36,1.76c0.03,0.02,0.06,0.06,0.08,0.09c0.54,0.68,0.48,1.6-0.2,2.72c-0.59,0.97-1.21,1.61-1.91,1.96
			c-0.43,0.21-0.81,0.35-1.16,0.31c-1.08-0.1-1.7-0.22-3.6-0.28c-0.68,0-1.35,0.06-1.97,0.18c-1.04,0.16-2.24,0.64-3.62,1.42
			c-1.38,0.78-2.77,2.01-4.14,3.67c-1.39,1.68-2.54,3.57-3.44,5.6c-1.29,2.84-1.96,5.81-2,8.83c-0.05,2.9,0.49,4.91,1.6,5.97
			c0.44,0.43,0.96,0.63,1.59,0.63c0.3,0,0.62-0.05,0.97-0.14c1.21-0.31,2.62-1.42,4.2-3.27c1.62-1.91,3.23-4.6,4.76-8.02
			c1.54-3.42,2.62-6.59,3.24-10.72c0.01-0.06,0.02-0.1,0.05-0.16c0.25-0.61,0.9-1.33,2.54-1.33c0.14,0,0.3,0,0.45,0.01
			c1.39,0.09,2.54,0.44,3.39,1.01c0.35,0.23,0.62,0.45,0.85,0.68c0.49,0.49,0.71,1.21,0.6,1.86c-1.35,7.15-2.11,10.72-2.26,11.91
			c-0.15,1.2-0.24,2.04-0.25,2.49c-0.16,1.97-0.09,3.42,0.23,4.35c0.24,0.7,0.61,1,1.28,1c0.94,0,2.06-0.55,3.31-1.65
			c1.33-1.15,2.76-2.93,4.23-5.3c1.38-2.21,2.54-4.75,3.48-7.55c0.84-5.28,1.69-10.57,2.57-15.97c0.2-0.91,1.02-1.46,2.46-1.68
			c0.33-0.05,0.67-0.08,1-0.08c0.94,0,1.88,0.21,2.76,0.62c1.7,0.79,2.07,1.9,2.08,2.68c0,0.06-0.01,0.12-0.02,0.17l-0.16,0.7
			c1.27-1.06,2.62-1.75,4.29-2.3c3.31-1.12,5.71-0.75,7.84-0.24c2.13,0.51,3.51,1.1,5.53,2.61c2.32,1.73,3.82,3.88,4.48,6.1
			c0.72,2.46,0.67,3.87,0.47,6.35c-0.26,3.28-0.93,5.85-1.31,7.09c-0.47,1.55-1.35,3.94-2.27,5.53c-0.78,1.36-1.17,1.82-1.83,2.58
			l-0.43,0.51c-1.86,2.2-3.84,3.84-5.89,4.9c-1.27,0.66-3.38,1.74-6.49,1.88c-0.23,0.01-0.46,0.01-0.68,0.01
			c-1.89,0-3.72-0.35-5.43-1.04c-1.15-0.46-2.22-1.07-3.15-1.8c-0.1-0.08-0.22-0.12-0.33-0.12c-0.2,0-0.43,0.13-0.46,0.4
			c-0.43,3.08-0.83,5.98-1.66,11.6c-0.48,3.28-1.28,6.81-1.29,6.9C318.69,118.86,317.25,120.11,314.81,120.11L314.81,120.11z
			 M331.08,69.84c-2.12,0.89-4.26,2.05-4.73,3.74c-0.02,0.08-0.08,0.14-0.09,0.22c-0.93,5.22-1.88,10.84-2.8,16.69
			c-0.02,0.17,0.01,0.33,0.12,0.45c0.98,1.1,2.3,1.92,3.91,2.45c0.58,0.18,1.16,0.31,1.75,0.38c0.31,0.03,0.61,0.05,0.9,0.05
			c1.37,0,2.42-0.35,2.91-0.52c2.32-0.78,3.19-1.5,4.45-3.13c1.3-1.67,1.83-2.37,2.47-4.05c0.53-1.38,1.21-3.31,1.63-5.49
			c0.61-3.07,0.68-4.38,0.58-5.63c-0.16-1.86-0.53-2.97-1.94-4.25C337.53,68.31,333.33,68.9,331.08,69.84z M101.05,44.44
			c-1.01,0-3.15,1.47-6.1,11.32c-1.32,4.52-2.39,8.7-3.19,12.39c-0.03,0.17,0,0.32,0.1,0.45c0.12,0.14,0.3,0.23,0.47,0.23
			c0.13,0,0.23-0.05,0.33-0.15c1.08-1.16,2.11-2.45,3.07-3.83c1.78-2.54,3.18-5.2,4.14-7.89c1.29-3.61,2.04-6.74,2.21-9.31
			c0.14-2.04-0.22-2.76-0.44-3c-0.08-0.09-0.21-0.2-0.48-0.21L101.05,44.44z"/>
	</g>
	<g>
		<path class="st1" d="M426.92,64.13c3.62,3.62,3.62,9.52,0,13.14c-3.62,3.62-9.52,3.62-13.14,0c-3.62-3.62-11.15-24.29-11.15-24.29
			S423.29,60.51,426.92,64.13z"/>
		<path class="st1" d="M397.2,52.98c0,0-7.53,20.65-11.15,24.29c-3.62,3.62-9.52,3.62-13.14,0c-3.62-3.62-3.62-9.52,0-13.14
			C376.53,60.51,397.2,52.98,397.2,52.98z"/>
		<path class="st1" d="M426.92,23.26c3.62,3.62,3.62,9.52,0,13.14c-3.62,3.62-24.29,11.15-24.29,11.15s7.53-20.65,11.15-24.29
			C417.41,19.62,423.29,19.62,426.92,23.26z"/>
		<path class="st1" d="M386.05,23.26c3.62,3.62,11.15,24.29,11.15,24.29s-20.65-7.53-24.29-11.15c-3.62-3.62-3.62-9.52,0-13.14
			C376.53,19.62,382.42,19.62,386.05,23.26z"/>
		<path class="st1" d="M449.84,50.27c0,5.13-4.15,9.29-9.29,9.29c-5.13,0-35.3-9.29-35.3-9.29s30.17-9.29,35.3-9.29
			S449.84,45.13,449.84,50.27z"/>
		<path class="st1" d="M394.1,50.27c0,0-30.17,9.29-35.3,9.29c-5.13,0-9.29-4.15-9.29-9.29c0-5.13,4.15-9.29,9.29-9.29
			C363.93,40.98,394.1,50.27,394.1,50.27z"/>
		<path class="st1" d="M399.67,100.44c-5.13,0-9.29-4.15-9.29-9.29s9.29-35.3,9.29-35.3s9.29,30.17,9.29,35.3
			C408.96,96.28,404.8,100.44,399.67,100.44z"/>
		<path class="st1" d="M399.67,44.69c0,0-9.29-30.17-9.29-35.3s4.15-9.29,9.29-9.29c5.13,0,9.29,4.15,9.29,9.29
			S399.67,44.69,399.67,44.69z"/>
	</g>
</g>
</svg>
