<svg width="70" height="70" viewBox="0 0 70 70" fill="none" xmlns="http://www.w3.org/2000/svg">
<path fill-rule="evenodd" clip-rule="evenodd" d="M35 70C54.33 70 70 54.33 70 35C70 15.67 54.33 0 35 0C15.67 0 0 15.67 0 35C0 54.33 15.67 70 35 70Z" fill="white"/>
<path d="M69.5 35C69.5 54.0538 54.0538 69.5 35 69.5C15.9462 69.5 0.5 54.0538 0.5 35C0.5 15.9462 15.9462 0.5 35 0.5C54.0538 0.5 69.5 15.9462 69.5 35Z" stroke="black" stroke-opacity="0.1"/>
<path fill-rule="evenodd" clip-rule="evenodd" d="M29.5633 22.0659C28.8995 21.6133 28 22.0887 28 22.8921V49.1079C28 49.9113 28.8995 50.3867 29.5633 49.9341L48.7882 36.8262C49.3704 36.4293 49.3704 35.5707 48.7882 35.1738L29.5633 22.0659Z" fill="#1B1B1B"/>
</svg>
