<?xml version="1.0" encoding="utf-8"?>
<!-- Generator: Adobe Illustrator 24.2.1, SVG Export Plug-In . SVG Version: 6.00 Build 0)  -->
<svg version="1.1" id="Layer_1" xmlns="http://www.w3.org/2000/svg" xmlns:xlink="http://www.w3.org/1999/xlink" x="0px" y="0px"
	 viewBox="0 0 225 150" style="enable-background:new 0 0 225 150;" xml:space="preserve">
<style type="text/css">
	.st0{fill:#FFFFFF;}
</style>
<g>
	<rect x="-0.24" y="0.11" width="225" height="150"/>
</g>
<g>
	<path class="st0" d="M55.07,40.69v-6.28c0-2.28-1.37-4.3-3.47-5.21L12.8,13.15v3.49l34.6,14.33c1.2,0.47,1.2,2.19,0,2.67
		L12.8,47.97v13.99l20.83-8.65l13.72,5.68c1.2,0.47,1.2,2.19,0,2.67L12.8,75.99v22.17L51.6,82.1c2.1-0.86,3.47-2.93,3.47-5.21V62.47
		c0-2.28-1.37-4.3-3.47-5.21l-13.76-5.68L51.6,45.9C53.7,45.04,55.07,42.98,55.07,40.69z"/>
	<path class="st0" d="M85.98,34.41l3.09,12.09l3.47-12.09h3.3l3.26,12.09l3.22-12.09h2.44L100.6,49h-3.09l-3.43-12.57L90.53,49H87.4
		l-4.03-14.59H85.98z"/>
	<path class="st0" d="M108.49,42.42c0.09,1.21,0.21,1.81,0.6,2.58c0.73,1.38,2.36,2.28,3.99,2.28c1.97,0,3.26-0.95,3.82-2.8h2.7
		c-0.69,3.14-3.04,4.91-6.56,4.91c-4.37,0-7.16-3.01-7.16-7.75c0-4.61,2.79-7.7,6.94-7.7c4.42,0,6.82,3.01,6.82,8.44h-11.15V42.42z
		 M116.29,37.94c-0.69-1.16-2.06-1.85-3.47-1.85c-2.44,0-3.99,1.55-4.29,4.35h8.45C116.85,39.15,116.68,38.54,116.29,37.94z"/>
	<path class="st0" d="M122.08,28.86h2.49v7.75c1.03-1.72,2.44-2.54,4.5-2.54c3.6,0,6.17,3.14,6.17,7.66s-2.44,7.58-6.13,7.58
		c-2.01,0-3.34-0.82-4.63-2.71V49h-2.4V28.86z M124.61,41.64c0,3.19,1.8,5.55,4.16,5.55c2.27,0,3.77-2.15,3.77-5.47
		c0-3.49-1.5-5.64-3.86-5.64C126.32,36.09,124.61,38.37,124.61,41.64z"/>
	<path class="st0" d="M139.74,42.85c-0.04,2.58,1.59,4.26,4.16,4.26c2.32,0,3.99-1.46,3.99-3.49c0-2.07-1.59-3.31-4.16-3.31
		c-0.26,0-0.47,0-0.86,0.04v-2.24c0.3,0,0.47,0,0.64,0c2.66,0,4.2-1.16,4.2-3.23c0-1.94-1.5-3.19-3.77-3.19
		c-2.44,0-3.86,1.46-3.94,4.05h-2.66c0.17-4,2.62-6.33,6.64-6.33c3.73,0,6.34,2.15,6.34,5.25c0,2.07-1.46,3.96-3.43,4.48
		c2.4,0.6,3.69,2.24,3.69,4.65c0,3.27-2.79,5.6-6.73,5.6c-4.11,0-6.9-2.67-6.86-6.54H139.74z"/>
	<path class="st0" d="M86.11,64.5H83.5v-2.02h2.61c0.04-2.41,0.09-2.93,0.43-3.79c0.51-1.38,1.84-2.11,3.82-2.11
		c0.39,0,0.73,0.04,1.37,0.09v2.24c-0.6-0.17-0.86-0.17-1.24-0.17c-0.86,0-1.5,0.43-1.71,1.21c-0.17,0.52-0.17,0.9-0.17,2.5h3.13
		v2.02H88.6v12.57h-2.49V64.5z"/>
	<path class="st0" d="M106.34,69.75c0,4.69-2.79,7.75-7.07,7.75c-4.2,0-6.99-3.14-6.99-7.79c0-4.61,2.83-7.66,7.07-7.66
		C103.51,62.09,106.34,65.19,106.34,69.75z M94.98,69.62c0,3.57,1.59,5.77,4.24,5.77c2.66,0,4.42-2.2,4.42-5.6
		c0-3.44-1.71-5.64-4.37-5.64C96.61,64.15,94.98,66.26,94.98,69.62z"/>
	<path class="st0" d="M118.43,75.34c-0.73,1.29-2.4,2.07-4.37,2.07c-2.01,0-3.6-0.82-4.46-2.24c-0.56-0.95-0.73-1.94-0.73-4.39
		v-8.31h2.49v8.78c0,2.75,1.03,4.05,3.13,4.05c1.37,0,2.57-0.65,3.26-1.72c0.43-0.69,0.51-1.51,0.51-4.09v-6.97h2.49v14.59h-2.4
		v-1.76H118.43z"/>
	<path class="st0" d="M126.19,64.24c1.11-1.46,2.44-2.07,4.42-2.07c2.01,0,3.6,0.82,4.46,2.24c0.56,0.95,0.73,1.94,0.73,4.39v8.31
		h-2.53v-8.78c0-2.8-1.03-4.05-3.13-4.05c-1.41,0-2.57,0.65-3.26,1.76c-0.43,0.69-0.51,1.46-0.51,4.09v6.97h-2.53V62.52h2.36V64.24z
		"/>
	<path class="st0" d="M149.04,77.06v-2.41c-1.29,1.94-2.66,2.71-4.63,2.71c-3.64,0-6.13-3.06-6.13-7.53c0-4.56,2.53-7.7,6.17-7.7
		c2.06,0,3.47,0.82,4.5,2.54v-7.75h2.49v20.1h-2.4V77.06z M140.98,69.83c0,3.31,1.46,5.47,3.77,5.47c2.36,0,4.16-2.37,4.16-5.55
		c0-3.27-1.67-5.55-4.03-5.55C142.53,64.2,140.98,66.35,140.98,69.83z"/>
	<path class="st0" d="M164.05,77.06c-0.13-0.77-0.17-1.03-0.26-1.81c-1.24,1.51-2.66,2.15-4.67,2.15c-3.13,0-5.23-1.81-5.23-4.43
		c0-1.94,1.07-3.27,3.22-3.92c0.69-0.22,1.8-0.43,3.09-0.6c0.81-0.13,1.76-0.26,3.39-0.39c-0.04-1.89-0.13-2.45-0.64-3.01
		c-0.51-0.56-1.41-0.9-2.53-0.9c-2.14,0-3.21,0.95-3.34,2.93h-2.62c0.26-1.81,0.6-2.71,1.54-3.53c1.03-0.95,2.66-1.51,4.42-1.51
		c2.19,0,3.9,0.73,4.84,2.15c0.77,1.08,0.9,2.15,0.86,6.8c-0.04,2.93,0.09,4.48,0.47,6.07H164.05z M156.59,73.06
		c0,1.46,1.12,2.32,2.92,2.32c1.54,0,2.74-0.56,3.47-1.68c0.43-0.65,0.6-1.51,0.6-3.14v-0.52
		C158.39,70.39,156.59,71.17,156.59,73.06z"/>
	<path class="st0" d="M172.66,62.52h3.26v2.02h-3.26v7.79c0,1.64,0.04,1.94,0.3,2.28c0.26,0.34,0.86,0.56,1.54,0.56
		c0.52,0,0.99-0.09,1.42-0.22v2.15c-1.16,0.22-1.59,0.26-2.19,0.26c-1.33,0-2.49-0.6-3.09-1.59c-0.34-0.65-0.47-1.25-0.47-2.67
		v-0.95V64.5h-2.66v-2.02h2.66v-3.53h2.49V62.52z"/>
	<path class="st0" d="M178.15,56.96h2.49v2.93h-2.49V56.96z M180.68,62.52v14.59h-2.49V62.52H180.68z"/>
	<path class="st0" d="M197.23,69.75c0,4.69-2.79,7.75-7.07,7.75c-4.2,0-6.99-3.14-6.99-7.79c0-4.61,2.83-7.66,7.07-7.66
		C194.4,62.09,197.23,65.19,197.23,69.75z M185.87,69.62c0,3.57,1.59,5.77,4.24,5.77c2.66,0,4.42-2.2,4.42-5.6
		c0-3.44-1.71-5.64-4.37-5.64C187.5,64.15,185.87,66.26,185.87,69.62z"/>
	<path class="st0" d="M202.11,64.24c1.11-1.46,2.44-2.07,4.42-2.07c2.01,0,3.6,0.82,4.46,2.24c0.56,0.95,0.73,1.94,0.73,4.39v8.31
		h-2.49v-8.78c0-2.8-1.03-4.05-3.13-4.05c-1.41,0-2.57,0.65-3.26,1.76c-0.43,0.69-0.51,1.46-0.51,4.09v6.97h-2.49V62.52h2.36v1.72
		H202.11z"/>
	<path class="st0" d="M18.74,134.91h-3.98v5.18h-2.56v-12.69h7.03v2.14h-4.46v3.25h3.98V134.91z M29.12,127.39v8.79
		c-0.01,1.32-0.38,2.33-1.09,3.03c-0.72,0.7-1.74,1.05-3.08,1.05c-1.36,0-2.4-0.36-3.12-1.06c-0.71-0.71-1.07-1.73-1.07-3.08v-8.73
		h2.58v8.74c0,0.72,0.12,1.24,0.35,1.54c0.23,0.31,0.65,0.46,1.26,0.46c0.61,0,1.03-0.15,1.26-0.45c0.23-0.31,0.34-0.81,0.35-1.51
		v-8.78H29.12z M40.12,140.09h-2.56l-3.75-8.33v8.33h-2.56v-12.69h2.56l3.76,8.34v-8.34h2.55V140.09z M42.36,140.09v-12.69h3.36
		c1.48,0,2.66,0.47,3.54,1.41c0.88,0.94,1.33,2.23,1.35,3.87v2.06c0,1.67-0.44,2.98-1.33,3.93c-0.88,0.95-2.09,1.42-3.64,1.42H42.36
		z M44.92,129.53v8.43h0.77c0.85,0,1.46-0.22,1.81-0.67c0.35-0.45,0.53-1.23,0.55-2.34v-2.21c0-1.19-0.17-2.01-0.5-2.48
		c-0.33-0.47-0.9-0.72-1.69-0.74H44.92z M59.19,134.6H55.2v3.37h4.73v2.13h-7.29v-12.69h7.27v2.14H55.2v3h3.99V134.6z M61.58,140.09
		v-12.69h3.36c1.48,0,2.66,0.47,3.54,1.41c0.88,0.94,1.33,2.23,1.35,3.87v2.06c0,1.67-0.44,2.98-1.33,3.93
		c-0.88,0.95-2.09,1.42-3.64,1.42H61.58z M64.15,129.53v8.43h0.77c0.85,0,1.46-0.22,1.81-0.67c0.35-0.45,0.53-1.23,0.55-2.34v-2.21
		c0-1.19-0.17-2.01-0.5-2.48c-0.33-0.47-0.9-0.72-1.69-0.74H64.15z M76.15,140.09v-12.69h3.92c1.33,0,2.33,0.3,3.02,0.89
		c0.69,0.59,1.04,1.45,1.04,2.59c0,0.65-0.14,1.2-0.43,1.67c-0.28,0.47-0.67,0.81-1.17,1.02c0.57,0.16,1.01,0.49,1.32,0.99
		c0.31,0.49,0.46,1.09,0.46,1.81c0,1.23-0.34,2.16-1.02,2.79c-0.67,0.63-1.65,0.94-2.94,0.94H76.15z M78.72,134.57v3.39h1.64
		c0.46,0,0.81-0.14,1.05-0.43c0.24-0.29,0.36-0.69,0.36-1.21c0-1.14-0.41-1.72-1.24-1.75H78.72z M78.72,132.7h1.33
		c1.01,0,1.51-0.52,1.51-1.56c0-0.58-0.12-0.99-0.35-1.24c-0.23-0.25-0.61-0.38-1.13-0.38h-1.36V132.7z M89.7,133.1l1.91-5.7h2.79
		l-3.4,8.09v4.6h-2.6v-4.6l-3.41-8.09h2.79L89.7,133.1z M106.1,137.49h-3.5l-0.68,2.6h-2.71l3.97-12.69h2.35l3.99,12.69h-2.74
		L106.1,137.49z M103.16,135.36h2.37l-1.19-4.53L103.16,135.36z M123.43,135.37l1.2-7.98h2.54l-2.26,12.69h-2.57l-1.48-7.48
		l-1.46,7.48h-2.58l-2.27-12.69h2.55l1.19,7.97l1.49-7.97h2.15L123.43,135.37z M135.29,134.6h-3.99v3.37h4.73v2.13h-7.29v-12.69
		h7.27v2.14h-4.71v3h3.99V134.6z M137.69,140.09v-12.69h3.93c1.33,0,2.33,0.3,3.02,0.89c0.69,0.59,1.04,1.45,1.04,2.59
		c0,0.65-0.14,1.2-0.43,1.67c-0.29,0.47-0.68,0.81-1.17,1.02c0.57,0.16,1.01,0.49,1.32,0.99c0.31,0.49,0.46,1.09,0.46,1.81
		c0,1.23-0.34,2.16-1.02,2.79c-0.67,0.63-1.65,0.94-2.94,0.94H137.69z M140.25,134.57v3.39h1.64c0.46,0,0.81-0.14,1.05-0.43
		c0.24-0.29,0.36-0.69,0.36-1.21c0-1.14-0.41-1.72-1.24-1.75H140.25z M140.25,132.7h1.33c1.01,0,1.51-0.52,1.51-1.56
		c0-0.58-0.12-0.99-0.35-1.24c-0.23-0.25-0.61-0.38-1.13-0.38h-1.36V132.7z M149.9,132.62h1.19c0.45,0,0.78-0.16,0.99-0.47
		c0.22-0.32,0.32-0.74,0.32-1.27c0-0.51-0.11-0.9-0.33-1.18c-0.21-0.28-0.51-0.43-0.87-0.43c-0.34,0-0.63,0.13-0.85,0.4
		c-0.21,0.27-0.32,0.6-0.32,1.01h-2.47c0-0.66,0.15-1.26,0.45-1.78c0.31-0.53,0.74-0.94,1.28-1.24c0.55-0.3,1.16-0.44,1.83-0.44
		c1.17,0,2.08,0.32,2.75,0.97c0.66,0.65,0.99,1.53,0.99,2.65c0,0.58-0.15,1.11-0.45,1.6c-0.3,0.49-0.69,0.86-1.18,1.12
		c0.6,0.26,1.04,0.64,1.33,1.15c0.3,0.51,0.44,1.12,0.44,1.81c0,1.13-0.36,2.03-1.08,2.71c-0.71,0.68-1.66,1.02-2.82,1.02
		c-1.09,0-1.97-0.33-2.65-1c-0.68-0.67-1.01-1.56-1.01-2.65h2.47c0,0.45,0.12,0.83,0.36,1.14c0.24,0.31,0.54,0.46,0.91,0.46
		c0.43,0,0.76-0.16,1-0.47c0.25-0.31,0.37-0.73,0.37-1.26c0-1.25-0.49-1.88-1.46-1.88h-1.21V132.62z M170.03,138.65
		c-0.49,0.53-1.1,0.94-1.82,1.21c-0.71,0.27-1.5,0.4-2.35,0.4c-1.46,0-2.59-0.45-3.4-1.35c-0.81-0.91-1.23-2.22-1.25-3.95v-2.28
		c0-1.75,0.38-3.1,1.14-4.04c0.77-0.95,1.88-1.42,3.35-1.42c1.38,0,2.42,0.34,3.11,1.02c0.7,0.68,1.11,1.75,1.22,3.2h-2.49
		c-0.07-0.81-0.24-1.36-0.51-1.65c-0.27-0.3-0.69-0.44-1.26-0.44c-0.69,0-1.19,0.25-1.51,0.76c-0.31,0.51-0.48,1.31-0.49,2.42v2.3
		c0,1.16,0.17,2,0.51,2.53c0.35,0.52,0.92,0.79,1.71,0.79c0.51,0,0.92-0.1,1.23-0.31l0.23-0.16v-2.33h-1.79v-1.94h4.37V138.65z
		 M175.87,135.45h-1.27v4.64h-2.56v-12.69h4.09c1.29,0,2.28,0.33,2.97,1c0.7,0.66,1.06,1.61,1.06,2.83c0,1.69-0.61,2.87-1.84,3.54
		l2.22,5.2v0.12h-2.76L175.87,135.45z M174.6,133.31h1.46c0.51,0,0.9-0.17,1.15-0.51c0.26-0.34,0.38-0.8,0.38-1.37
		c0-1.27-0.5-1.91-1.49-1.91h-1.5V133.31z M188.15,137.49h-3.5l-0.68,2.6h-2.71l3.97-12.69h2.35l3.99,12.69h-2.74L188.15,137.49z
		 M185.21,135.36h2.37l-1.19-4.53L185.21,135.36z M201.82,140.09h-2.56l-3.75-8.33v8.33h-2.56v-12.69h2.56l3.76,8.34v-8.34h2.56
		V140.09z M212.01,129.53h-3.14v10.56h-2.57v-10.56h-3.09v-2.14h8.8V129.53z"/>
	<rect x="11.17" y="117.86" class="st0" width="201.36" height="0.91"/>
</g>
</svg>
