<?xml version="1.0" standalone="no"?>
<!DOCTYPE svg PUBLIC "-//W3C//DTD SVG 20010904//EN"
 "http://www.w3.org/TR/2001/REC-SVG-20010904/DTD/svg10.dtd">
<svg version="1.0" xmlns="http://www.w3.org/2000/svg"
 width="1200.000000pt" height="1200.000000pt" viewBox="0 0 1200.000000 1200.000000"
 preserveAspectRatio="xMidYMid meet">
<metadata>
Created by potrace 1.11, written by Peter Selinger 2001-2013
</metadata>
<g transform="translate(0.000000,1200.000000) scale(0.100000,-0.100000)"
fill="#000000" stroke="none">
<path d="M5879 11996 c-2 -2 -24 -6 -49 -9 -149 -19 -364 -109 -492 -206 -268
-203 -426 -498 -445 -826 -6 -124 4 -218 48 -440 17 -82 32 -161 35 -175 12
-59 69 -300 115 -485 28 -110 52 -207 54 -215 4 -15 76 -285 119 -445 13 -49
59 -214 101 -365 43 -151 86 -304 96 -340 9 -36 50 -175 89 -310 39 -135 79
-274 90 -310 16 -57 125 -425 210 -710 74 -247 90 -301 114 -377 27 -91 45
-130 46 -101 0 9 31 119 69 245 116 380 441 1484 455 1543 2 8 12 41 21 74 9
32 18 64 19 70 1 6 10 38 20 71 10 33 20 67 22 75 5 25 152 561 168 615 19 63
110 417 142 550 13 55 29 118 34 140 6 22 13 51 16 65 3 14 14 59 24 100 10
41 21 86 24 100 2 14 16 83 30 154 14 70 28 149 32 175 3 25 9 60 13 76 13 52
10 266 -5 345 -22 111 -32 147 -71 240 -79 186 -197 336 -365 464 -105 80
-296 167 -423 191 -22 5 -47 10 -55 12 -22 6 -296 14 -301 9z"/>
<path d="M3435 9545 c-250 -37 -462 -143 -637 -319 -75 -75 -198 -244 -198
-272 0 -7 -4 -14 -8 -16 -13 -4 -70 -157 -87 -231 -38 -162 -39 -378 -4 -512
6 -22 12 -47 14 -55 2 -8 15 -46 29 -83 75 -200 207 -376 368 -490 178 -128
521 -308 933 -491 121 -54 238 -107 260 -116 22 -10 135 -58 250 -105 116 -48
224 -93 240 -100 53 -24 504 -201 685 -270 96 -36 186 -71 200 -76 59 -26 213
-79 217 -75 2 2 -17 59 -43 127 -26 68 -57 151 -69 184 -95 253 -375 958 -405
1020 -5 11 -43 99 -84 195 -110 261 -206 470 -322 705 -236 478 -342 633 -527
771 -232 173 -531 250 -812 209z"/>
<path d="M8408 9555 c-2 -2 -35 -6 -75 -9 -132 -12 -322 -79 -448 -158 -124
-78 -229 -181 -315 -308 -110 -164 -276 -477 -427 -810 -34 -74 -78 -170 -97
-213 -20 -44 -36 -81 -36 -83 0 -3 -9 -24 -19 -47 -10 -23 -44 -103 -75 -177
-31 -74 -63 -148 -70 -165 -8 -16 -42 -100 -76 -185 -33 -85 -65 -164 -70
-175 -5 -11 -34 -83 -64 -160 -30 -77 -71 -183 -91 -235 -93 -238 -186 -492
-182 -496 2 -3 65 18 138 46 74 28 152 57 174 65 22 7 114 42 205 78 91 35
226 88 300 117 74 29 139 56 145 61 5 5 15 9 23 9 7 0 32 9 55 19 23 11 92 39
152 64 108 44 150 61 190 78 11 4 40 17 65 27 25 11 115 50 200 87 547 235
1012 478 1189 620 59 47 147 146 197 221 233 350 251 794 46 1164 -20 36 -39
67 -42 70 -4 3 -20 25 -37 50 -103 152 -318 311 -507 376 -107 37 -126 42
-192 54 -55 9 -249 21 -256 15z"/>
<path d="M872 7084 c-423 -95 -746 -417 -847 -844 -26 -111 -28 -346 -4 -456
75 -333 261 -591 545 -751 176 -100 347 -142 554 -138 74 2 151 6 170 9 238
43 623 126 775 166 17 5 102 26 190 49 88 22 237 61 330 86 94 25 204 55 245
66 72 19 290 80 560 155 69 19 154 44 190 55 65 19 306 89 325 93 30 8 108 30
163 48 34 11 68 21 75 22 6 1 46 13 87 25 41 12 167 49 280 83 299 88 616 184
685 206 33 11 75 23 93 27 42 9 41 18 -5 32 -41 11 -50 14 -528 158 -176 53
-327 98 -335 100 -8 2 -85 25 -170 50 -85 26 -164 49 -175 52 -11 3 -96 28
-190 55 -167 49 -250 72 -310 88 -16 5 -124 35 -240 68 -233 67 -295 84 -310
88 -5 1 -100 27 -210 57 -169 46 -554 148 -612 162 -10 3 -34 8 -53 13 -51 14
-414 100 -442 106 -12 3 -32 7 -43 10 -59 13 -292 58 -372 70 -136 22 -297 18
-421 -10z"/>
<path d="M10740 7100 c-25 -4 -65 -11 -90 -15 -38 -6 -303 -58 -350 -70 -8 -2
-78 -17 -155 -35 -77 -17 -163 -38 -191 -46 -28 -8 -60 -16 -70 -19 -11 -2
-73 -17 -139 -34 -105 -26 -194 -50 -570 -151 -44 -12 -136 -37 -205 -57 -69
-19 -132 -36 -140 -38 -19 -4 -543 -152 -585 -166 -27 -8 -187 -55 -565 -164
-63 -18 -169 -50 -235 -70 -66 -20 -167 -50 -225 -67 -58 -17 -143 -43 -190
-57 -47 -15 -145 -45 -217 -67 -73 -21 -133 -42 -133 -45 0 -3 42 -18 93 -33
50 -15 130 -39 177 -53 47 -14 99 -29 115 -34 17 -4 68 -20 115 -34 87 -27
146 -45 450 -135 309 -91 514 -151 545 -159 32 -9 606 -172 690 -196 108 -31
520 -143 775 -210 203 -53 649 -160 710 -170 19 -3 43 -8 52 -11 9 -3 27 -7
40 -9 13 -3 34 -7 48 -10 34 -7 59 -12 165 -32 93 -17 321 -24 406 -11 72 10
197 47 274 81 343 151 589 467 650 834 13 84 14 312 1 372 -55 250 -153 437
-311 597 -143 145 -353 258 -562 301 -98 21 -293 28 -373 13z"/>
<path d="M5396 5560 c-280 -106 -879 -344 -961 -381 -22 -10 -110 -47 -195
-82 -145 -61 -348 -150 -485 -212 -137 -63 -473 -229 -558 -277 -51 -28 -101
-56 -112 -62 -73 -39 -235 -157 -289 -210 -125 -124 -223 -289 -275 -463 -60
-202 -61 -426 -5 -621 119 -411 461 -717 884 -792 75 -13 263 -17 335 -6 248
36 484 156 648 330 167 177 434 692 769 1486 71 167 282 690 345 855 76 199
203 535 203 540 0 9 -16 4 -304 -105z"/>
<path d="M6360 5664 c0 -11 296 -788 320 -839 5 -11 48 -117 95 -235 79 -196
146 -356 180 -435 8 -16 28 -64 45 -105 112 -263 351 -762 438 -915 163 -286
253 -393 430 -509 180 -119 380 -179 597 -179 195 0 337 33 510 118 262 130
469 374 559 660 14 44 28 100 32 125 18 128 20 154 18 217 -7 242 -75 449
-210 639 -128 181 -326 317 -798 548 -183 90 -519 246 -530 246 -3 0 -31 12
-63 26 -32 15 -74 33 -93 41 -19 9 -48 21 -65 29 -60 26 -442 183 -510 209
-38 15 -83 33 -100 40 -74 33 -839 325 -850 325 -3 0 -5 -2 -5 -6z"/>
<path d="M5892 4978 c-57 -189 -128 -426 -158 -528 -30 -102 -65 -221 -78
-265 -13 -44 -54 -181 -89 -305 -36 -124 -73 -252 -83 -285 -9 -33 -18 -64
-20 -70 -1 -5 -58 -212 -127 -460 -142 -508 -296 -1097 -312 -1190 -2 -11 -15
-67 -29 -125 -29 -124 -81 -390 -93 -475 -16 -116 -8 -322 16 -420 78 -320
290 -588 581 -735 156 -78 287 -110 465 -115 112 -3 155 0 270 19 44 7 144 40
210 69 287 126 510 371 609 668 86 258 72 474 -69 1070 -54 227 -61 256 -69
286 -3 13 -8 31 -10 40 -64 263 -298 1125 -391 1438 -13 44 -56 193 -95 330
-40 138 -80 277 -90 310 -11 33 -60 200 -110 370 -51 171 -100 335 -109 365
-10 30 -37 121 -62 203 -24 81 -46 147 -49 147 -3 0 -52 -154 -108 -342z"/>
</g>
</svg>
